<?xml version="1.0" encoding="UTF-8"?>
<svg version="1.1" xmlns="http://www.w3.org/2000/svg" viewBox="0 170 500 120">
<path d="M0 0 C0.99 0 1.98 0 3 0 C3.84158017 3.89409888 4.6718106 7.79053312 5.5 11.6875 C5.85771484 13.34168945 5.85771484 13.34168945 6.22265625 15.02929688 C6.44824219 16.09599609 6.67382812 17.16269531 6.90625 18.26171875 C7.11572266 19.24100342 7.32519531 20.22028809 7.54101562 21.22924805 C7.9800481 23.87955633 8.08555667 26.31993732 8 29 C6.02 28.67 4.04 28.34 2 28 C0.6249456 31.38774386 -0.7212544 34.78624447 -2.0625 38.1875 C-2.45244141 39.14720703 -2.84238281 40.10691406 -3.24414062 41.09570312 C-3.60830078 42.02705078 -3.97246094 42.95839844 -4.34765625 43.91796875 C-4.68804932 44.77156982 -5.02844238 45.6251709 -5.37915039 46.50463867 C-6.79905933 52.21163407 -3.64765194 57.96739622 -1.625 63.25 C-1.28283447 64.15226318 -0.94066895 65.05452637 -0.58813477 65.98413086 C2.79291056 74.74861709 6.61518235 83.30914503 10.58154297 91.82324219 C11.04061035 92.83161133 11.49967773 93.83998047 11.97265625 94.87890625 C12.59539429 96.21804077 12.59539429 96.21804077 13.23071289 97.58422852 C14 100 14 100 13 104 C6.73 104 0.46 104 -6 104 C-10.5 95 -10.5 95 -11.921875 91.5 C-12.37626953 90.38818359 -12.37626953 90.38818359 -12.83984375 89.25390625 C-13.29037109 88.13822266 -13.29037109 88.13822266 -13.75 87 C-14.06582031 86.22527344 -14.38164062 85.45054687 -14.70703125 84.65234375 C-15.47416752 82.7693729 -16.23749249 80.88485002 -17 79 C-19.4998581 83.83129158 -21.73078393 88.64172698 -23.625 93.75 C-24.94731182 97.30423941 -26.30005813 100.60011626 -28 104 C-34.93 104 -41.86 104 -49 104 C-53.95 91.13 -53.95 91.13 -59 78 C-62.28056126 85.853125 -62.28056126 85.853125 -65.51171875 93.7265625 C-65.89972656 94.68304688 -66.28773438 95.63953125 -66.6875 96.625 C-67.08324219 97.60726562 -67.47898437 98.58953125 -67.88671875 99.6015625 C-69 102 -69 102 -71 104 C-72.97119141 104.22705078 -72.97119141 104.22705078 -75.3515625 104.1953125 C-76.62773437 104.18564453 -76.62773437 104.18564453 -77.9296875 104.17578125 C-79.26386719 104.15064453 -79.26386719 104.15064453 -80.625 104.125 C-81.5221875 104.11597656 -82.419375 104.10695313 -83.34375 104.09765625 C-85.56276586 104.0740497 -87.78125077 104.0411231 -90 104 C-90.21530059 100.18514264 -89.70372066 97.83933698 -88 94.4375 C-85.49319369 89.1837989 -83.31426029 83.85215309 -81.1875 78.4375 C-77.39486132 68.82735474 -73.25235191 59.41592209 -69 50 C-62.4 50 -55.8 50 -49 50 C-48.29875 51.711875 -47.5975 53.42375 -46.875 55.1875 C-44.09204165 61.87776376 -41.07021905 68.43735394 -38 75 C-34.58338586 66.8655506 -31.25911408 58.69870886 -28 50.5 C-25.1083854 43.22578203 -22.17465909 35.9761928 -19.11328125 28.77148438 C-17.95227498 25.88118982 -16.95655779 22.96358201 -16 20 C-17.32 19.67 -18.64 19.34 -20 19 C-20 18.34 -20 17.68 -20 17 C-19.34 17 -18.68 17 -18 17 C-17.505 15.515 -17.505 15.515 -17 14 C-14.8203125 11.95703125 -14.8203125 11.95703125 -12.125 9.8125 C-11.24070312 9.09707031 -10.35640625 8.38164062 -9.4453125 7.64453125 C-7 6 -7 6 -4 6 C-4 5.34 -4 4.68 -4 4 C-3.34 4 -2.68 4 -2 4 C-2 3.34 -2 2.68 -2 2 C-1.34 2 -0.68 2 0 2 C0 1.34 0 0.68 0 0 Z " fill="#81BE7F" transform="translate(431,173)"/>
<path d="M0 0 C6.93 0 13.86 0 21 0 C21 3.86345804 20.64716769 5.2685388 19.09375 8.640625 C18.68334473 9.5387793 18.27293945 10.43693359 17.85009766 11.36230469 C17.40456543 12.31524414 16.9590332 13.26818359 16.5 14.25 C16.04802246 15.23129883 15.59604492 16.21259766 15.13037109 17.22363281 C12.09177881 23.77963881 8.91979597 30.25861133 5.63232422 36.69287109 C3.39760486 41.09648087 1.47231013 45.53895804 -0.2109375 50.1796875 C-1 52 -1 52 -3 54 C-6.26911171 54.50094447 -9.57183207 54.41665252 -12.875 54.4375 C-13.78636719 54.47037109 -14.69773438 54.50324219 -15.63671875 54.53710938 C-22.31683771 54.59090243 -22.31683771 54.59090243 -25.4296875 51.8984375 C-27.16179741 48.70135902 -28.77279288 45.51121602 -30.25 42.1875 C-30.77078125 41.02605469 -31.2915625 39.86460937 -31.828125 38.66796875 C-32.21484375 37.78753906 -32.6015625 36.90710938 -33 36 C-35.46053394 37.23026697 -35.73015768 38.12067052 -36.91015625 40.5625 C-37.26013672 41.27664063 -37.61011719 41.99078125 -37.97070312 42.7265625 C-38.33099609 43.47679687 -38.69128906 44.22703125 -39.0625 45 C-42.89440735 52.89440735 -42.89440735 52.89440735 -44 54 C-45.4887186 54.08669432 -46.981445 54.10703494 -48.47265625 54.09765625 C-49.37177734 54.09443359 -50.27089844 54.09121094 -51.19726562 54.08789062 C-52.61555664 54.07532227 -52.61555664 54.07532227 -54.0625 54.0625 C-55.01189453 54.05798828 -55.96128906 54.05347656 -56.93945312 54.04882812 C-59.29303065 54.0370011 -61.64648477 54.02052025 -64 54 C-66.05216466 47.84350601 -60.87240431 40.70878651 -58.09375 35.14453125 C-57.07737592 33.12658465 -56.05563248 31.11153109 -55.02929688 29.09863281 C-52.12697997 23.36834678 -49.58404623 17.53146868 -47.12890625 11.59765625 C-46 9 -46 9 -45 8 C-41.92465582 7.74878778 -38.83439033 7.81477127 -35.75 7.8125 C-34.46029297 7.79413086 -34.46029297 7.79413086 -33.14453125 7.77539062 C-24.65672737 7.7557732 -24.65672737 7.7557732 -21 10 C-19.9609375 11.734375 -19.9609375 11.734375 -19.375 13.75 C-18.51583226 16.44466246 -17.65441869 18.69116263 -16.375 21.25 C-15.207269 23.585462 -14.5693259 25.48637244 -14 28 C-8.98496118 18.79727649 -4.2985366 9.56424394 0 0 Z " fill="#212994" transform="translate(133,223)"/>
<path d="M0 0 C6.6 0 13.2 0 20 0 C20.70125 1.711875 21.4025 3.42375 22.125 5.1875 C24.52480427 10.97728565 27.14593207 16.63827194 29.86328125 22.28515625 C31.73419387 26.75348707 30.93674226 30.64077652 29.18359375 35.05615234 C28.14836074 37.44581522 27.08149333 39.81842457 26 42.1875 C25.63132812 43.00669922 25.26265625 43.82589844 24.8828125 44.66992188 C22.28348214 50.43303571 22.28348214 50.43303571 21 53 C27.6 53 34.2 53 41 53 C41 53.33 41 53.66 41 54 C34.07 54 27.14 54 20 54 C15.05 41.13 15.05 41.13 10 28 C6.71943874 35.853125 6.71943874 35.853125 3.48828125 43.7265625 C3.10027344 44.68304688 2.71226562 45.63953125 2.3125 46.625 C1.91675781 47.60726562 1.52101563 48.58953125 1.11328125 49.6015625 C0 52 0 52 -2 54 C-3.97119141 54.22705078 -3.97119141 54.22705078 -6.3515625 54.1953125 C-7.20234375 54.18886719 -8.053125 54.18242187 -8.9296875 54.17578125 C-9.81914062 54.15902344 -10.70859375 54.14226562 -11.625 54.125 C-12.97078125 54.11146484 -12.97078125 54.11146484 -14.34375 54.09765625 C-16.56276586 54.0740497 -18.78125077 54.0411231 -21 54 C-21.21530059 50.18514264 -20.70372066 47.83933698 -19 44.4375 C-16.49319369 39.1837989 -14.31426029 33.85215309 -12.1875 28.4375 C-8.39486132 18.82735474 -4.25235191 9.41592209 0 0 Z " fill="#515BB8" transform="translate(362,223)"/>
<path d="M0 0 C0.8765625 -0.01224609 1.753125 -0.02449219 2.65625 -0.03710938 C3.49929687 -0.03904297 4.34234375 -0.04097656 5.2109375 -0.04296875 C5.9848584 -0.04707764 6.7587793 -0.05118652 7.55615234 -0.05541992 C9.625 0.1875 9.625 0.1875 12.625 2.1875 C12.16609375 2.97511719 11.7071875 3.76273438 11.234375 4.57421875 C8.10583988 10.12802584 5.42485888 15.24678328 3.75 21.4375 C1.59970561 29.16719262 -2.5842697 40.3967697 -8.375 46.1875 C-9.8637186 46.27419432 -11.356445 46.29453494 -12.84765625 46.28515625 C-13.74677734 46.28193359 -14.64589844 46.27871094 -15.57226562 46.27539062 C-16.99055664 46.26282227 -16.99055664 46.26282227 -18.4375 46.25 C-19.38689453 46.24548828 -20.33628906 46.24097656 -21.31445312 46.23632812 C-23.66803065 46.2245011 -26.02148477 46.20802025 -28.375 46.1875 C-30.42716466 40.03100601 -25.24740431 32.89628651 -22.46875 27.33203125 C-21.45237592 25.31408465 -20.43063248 23.29903109 -19.40429688 21.28613281 C-16.50197997 15.55584678 -13.95904623 9.71896868 -11.50390625 3.78515625 C-9.225355 -1.4578769 -5.19309664 0.00378506 0 0 Z " fill="#469447" transform="translate(97.375,230.8125)"/>
<path d="M0 0 C2.07721391 2.07721391 2.58814294 3.20388486 3.55859375 5.91015625 C4.00634155 7.13037476 4.00634155 7.13037476 4.46313477 8.37524414 C4.94544556 9.70543579 4.94544556 9.70543579 5.4375 11.0625 C9.04838501 20.85608863 13.17294194 30.36223184 17.58178711 39.82250977 C18.04077393 40.83112061 18.49976074 41.83973145 18.97265625 42.87890625 C19.38781494 43.7716626 19.80297363 44.66441895 20.23071289 45.58422852 C21 48 21 48 20 52 C13.73 52 7.46 52 1 52 C-3.49420378 43.01159243 -3.49420378 43.01159243 -4.88671875 39.53515625 C-5.18513672 38.79845703 -5.48355469 38.06175781 -5.79101562 37.30273438 C-6.08685547 36.56345703 -6.38269531 35.82417969 -6.6875 35.0625 C-8.30647393 30.17903039 -8.30647393 30.17903039 -11 26 C-10.67598265 18.87161826 -7.65615895 12.53696439 -5 6 C-4.51853516 4.59621094 -4.51853516 4.59621094 -4.02734375 3.1640625 C-3.68832031 2.44992188 -3.34929687 1.73578125 -3 1 C-2.01 0.67 -1.02 0.34 0 0 Z " fill="#545EBB" transform="translate(424,225)"/>
<path d="M0 0 C3 0.125 3 0.125 4 1.125 C4.14426614 5.79345228 4.04208415 10.45365953 4 15.125 C8.62 15.125 13.24 15.125 18 15.125 C18.33 10.175 18.66 5.225 19 0.125 C21.64 0.125 24.28 0.125 27 0.125 C27 12.995 27 25.865 27 39.125 C24.69 39.125 22.38 39.125 20 39.125 C19 38.125 19 38.125 18.90234375 34.74609375 C18.90808576 33.35152508 18.92109772 31.95698403 18.9375 30.5625 C18.958125 28.108125 18.97875 25.65375 19 23.125 C14.05 23.125 9.1 23.125 4 23.125 C4.020625 25.39375 4.04125 27.6625 4.0625 30 C4.125 36.875 4.125 36.875 3 39.125 C1.02 39.125 -0.96 39.125 -3 39.125 C-4.22699775 35.44400675 -4.14319812 32.04333308 -4.1328125 28.2109375 C-4.13376923 27.44069244 -4.13472595 26.67044739 -4.13571167 25.87686157 C-4.13639151 24.25124022 -4.13455088 22.62561613 -4.13037109 21 C-4.12500546 18.50254279 -4.13033015 16.00526423 -4.13671875 13.5078125 C-4.13605822 11.9296871 -4.13477758 10.35156181 -4.1328125 8.7734375 C-4.13483673 8.02242767 -4.13686096 7.27141785 -4.13894653 6.49765015 C-4.11008582 0.17125358 -4.11008582 0.17125358 0 0 Z " fill="#4C55B6" transform="translate(307,230.875)"/>
<path d="M0 0 C1.36125 -0.0937793 1.36125 -0.0937793 2.75 -0.18945312 C5.4616134 -0.25486485 7.64190774 -0.1947426 10.25 0.5625 C12.62753575 2.91969095 13.88890367 5.53235575 15.25 8.5625 C16.05050781 9.92761719 16.05050781 9.92761719 16.8671875 11.3203125 C20.20948858 17.61048161 20.20948858 17.61048161 20.375 21.5 C18.60641329 26.31448605 16.47684747 30.94446208 14.25 35.5625 C13.59 35.5625 12.93 35.5625 12.25 35.5625 C12.105625 36.34625 11.96125 37.13 11.8125 37.9375 C11.25 40.5625 11.25 40.5625 10.25 42.5625 C9.59 42.5625 8.93 42.5625 8.25 42.5625 C3.59841376 34.19724954 -0.69675449 25.73086582 -4.625 17 C-5.0058374 16.15598633 -5.3866748 15.31197266 -5.77905273 14.44238281 C-7.66420008 10.20429074 -9.38257002 6.00304894 -10.75 1.5625 C-8.41542304 -0.77207696 -3.12792731 0.09392519 0 0 Z " fill="#21288E" transform="translate(60.75,222.4375)"/>
<path d="M0 0 C1.57898665 0.01018369 3.15797655 0.01987265 4.73696899 0.02911377 C8.95895486 0.05518643 13.18086203 0.0880412 17.40278864 0.12226367 C21.83896356 0.15701946 26.27517991 0.18533007 30.71139526 0.21437073 C39.08316637 0.27013021 47.45488562 0.33155298 55.82660091 0.39509207 C65.36973285 0.46724003 74.91290589 0.53295029 84.45608735 0.59816253 C104.06045929 0.73226878 123.66476682 0.87432065 143.26904297 1.02172852 C143.26904297 2.34172852 143.26904297 3.66172852 143.26904297 5.02172852 C84.52904297 5.02172852 25.78904297 5.02172852 -34.73095703 5.02172852 C-34.73095703 3.70172852 -34.73095703 2.38172852 -34.73095703 1.02172852 C-23.13365012 0.26692899 -11.61980691 -0.10592095 0 0 Z " fill="#496B4E" transform="translate(191.73095703125,271.978271484375)"/>
<path d="M0 0 C2.97 0 5.94 0 9 0 C10.53537853 4.12398227 12.06509859 8.2500078 13.58984375 12.37792969 C14.10818909 13.77888046 14.62801649 15.17928388 15.14941406 16.57910156 C20.83530196 31.85039434 20.83530196 31.85039434 22 38 C21 39 21 39 18.0625 39.125 C15 39 15 39 13 38 C12.34 36.02 11.68 34.04 11 32 C4.07 31.505 4.07 31.505 -3 31 C-3.495 33.475 -3.495 33.475 -4 36 C-4.66 36.99 -5.32 37.98 -6 39 C-8.31 38.67 -10.62 38.34 -13 38 C-9.31617005 25.13890948 -5.17526195 12.34100927 0 0 Z M4 13 C3.33125616 14.64499042 2.66505926 16.29101648 2 17.9375 C1.62875 18.85402344 1.2575 19.77054688 0.875 20.71484375 C-0.059598 22.74782158 -0.059598 22.74782158 0 24 C2.97 24 5.94 24 9 24 C8.01 20.37 7.02 16.74 6 13 C5.34 13 4.68 13 4 13 Z " fill="#2B33A1" transform="translate(203,231)"/>
<path d="M0 0 C58.74 0 117.48 0 178 0 C178 1.32 178 2.64 178 4 C173.87843918 4.17121405 169.75661974 4.33126802 165.63427734 4.48217773 C164.23996087 4.53465201 162.84574426 4.58987113 161.45166016 4.64819336 C159.41591073 4.73283225 157.37997302 4.80665725 155.34375 4.87890625 C154.12880859 4.9260376 152.91386719 4.97316895 151.66210938 5.02172852 C147.68648358 5.07558367 143.76081805 4.79378762 139.79589844 4.51147461 C130.79994615 3.89034393 121.82895428 3.88481573 112.81505585 3.92483521 C109.82984201 3.93790287 106.84467407 3.9441923 103.85943604 3.94897461 C96.43216581 3.96217036 89.00493866 3.98608293 81.57769775 4.01037598 C74.29659611 4.03377745 67.01550759 4.05218744 59.734375 4.0625 C58.72310043 4.06402069 57.71182587 4.06554138 56.66990662 4.06710815 C37.76656609 4.08549671 18.89022251 3.68511164 0 3 C0 2.01 0 1.02 0 0 Z " fill="#7AA181" transform="translate(157,223)"/>
<path d="M0 0 C0.91644287 0.00523682 1.83288574 0.01047363 2.77709961 0.01586914 C3.76645508 0.0190918 4.75581055 0.02231445 5.77514648 0.02563477 C6.81606445 0.03401367 7.85698242 0.04239258 8.92944336 0.05102539 C10.49662109 0.05779297 10.49662109 0.05779297 12.09545898 0.06469727 C14.68600996 0.07652627 17.27644895 0.0930085 19.86694336 0.11352539 C19.90948692 2.11307285 19.90775119 4.11394175 19.86694336 6.11352539 C18.86694336 7.11352539 18.86694336 7.11352539 15.70678711 7.21118164 C13.77512695 7.1937793 13.77512695 7.1937793 11.80444336 7.17602539 C10.5140918 7.16700195 9.22374023 7.15797852 7.89428711 7.14868164 C6.89526367 7.13708008 5.89624023 7.12547852 4.86694336 7.11352539 C4.86694336 9.75352539 4.86694336 12.39352539 4.86694336 15.11352539 C5.7215918 15.10192383 6.57624023 15.09032227 7.45678711 15.07836914 C8.56151367 15.0693457 9.66624023 15.06032227 10.80444336 15.05102539 C11.9065918 15.03942383 13.00874023 15.02782227 14.14428711 15.01586914 C16.86694336 15.11352539 16.86694336 15.11352539 17.86694336 16.11352539 C17.90775119 18.11310903 17.90948692 20.11397793 17.86694336 22.11352539 C15.34218874 23.3759027 13.5549387 23.21208943 10.74194336 23.17602539 C9.83186523 23.16700195 8.92178711 23.15797852 7.98413086 23.14868164 C6.93612305 23.1312793 6.93612305 23.1312793 5.86694336 23.11352539 C5.53694336 26.08352539 5.20694336 29.05352539 4.86694336 32.11352539 C9.81694336 32.11352539 14.76694336 32.11352539 19.86694336 32.11352539 C19.86694336 34.09352539 19.86694336 36.07352539 19.86694336 38.11352539 C18.86694336 39.11352539 18.86694336 39.11352539 16.82568359 39.22705078 C15.51386108 39.21919556 15.51386108 39.21919556 14.17553711 39.21118164 C13.23129883 39.20795898 12.28706055 39.20473633 11.31420898 39.20141602 C10.32098633 39.19303711 9.32776367 39.1846582 8.30444336 39.17602539 C7.30735352 39.17151367 6.31026367 39.16700195 5.28295898 39.16235352 C2.81089487 39.15052546 0.33894818 39.13404388 -2.13305664 39.11352539 C-2.30028189 33.72022673 -2.46088032 28.32678788 -2.61523438 22.93310547 C-2.66873198 21.09678789 -2.7240671 19.26052292 -2.78125 17.42431641 C-2.86294528 14.79088692 -2.93811402 12.15734135 -3.01196289 9.52368164 C-3.03899796 8.69763931 -3.06603302 7.87159698 -3.09388733 7.02052307 C-3.14588675 5.05216729 -3.14493501 3.08253208 -3.13305664 1.11352539 C-2.13305664 0.11352539 -2.13305664 0.11352539 0 0 Z " fill="#262D93" transform="translate(160.133056640625,230.886474609375)"/>
<path d="M0 0 C8.91 0 17.82 0 27 0 C28 5 28 5 27 7 C24.03 7 21.06 7 18 7 C18 17.56 18 28.12 18 39 C15.69 39 13.38 39 11 39 C10 38 10 38 9.88647461 35.04077148 C9.89171143 33.74727783 9.89694824 32.45378418 9.90234375 31.12109375 C9.9037587 30.4344313 9.90517365 29.74776886 9.90663147 29.04029846 C9.91224521 26.83932199 9.92479993 24.63844591 9.9375 22.4375 C9.94251324 20.94856917 9.94707645 19.45963676 9.95117188 17.97070312 C9.96221907 14.31376925 9.97949287 10.65689442 10 7 C9.04287109 7.01740234 9.04287109 7.01740234 8.06640625 7.03515625 C6.82697266 7.04869141 6.82697266 7.04869141 5.5625 7.0625 C4.32693359 7.07990234 4.32693359 7.07990234 3.06640625 7.09765625 C1 7 1 7 0 6 C0 4.02 0 2.04 0 0 Z " fill="#414AB0" transform="translate(264,231)"/>
<path d="M0 0 C58.08 0 116.16 0 176 0 C176 0.66 176 1.32 176 2 C164.87829909 2.76683792 153.83819983 3.13222934 142.68969727 3.0534668 C141.1436583 3.046571 139.59761727 3.04012555 138.05157471 3.03408813 C133.9141097 3.01642306 129.77671537 2.99184843 125.63929868 2.96532798 C122.17409712 2.94363188 118.70888117 2.92508328 115.2436623 2.90639621 C107.07898994 2.86217593 98.91436982 2.81191975 90.74975586 2.75805664 C82.32945844 2.70263845 73.90915338 2.65877088 65.48876339 2.62020558 C58.2374452 2.58652684 50.98619702 2.5452308 43.73495525 2.49788028 C39.41251432 2.46976707 35.0901087 2.44470309 30.76761055 2.4272213 C26.71839924 2.41056276 22.66936011 2.3844517 18.62025452 2.35091019 C17.13271076 2.34020838 15.64513805 2.33292497 14.15756035 2.32924461 C12.13380823 2.32371182 10.11010543 2.30484149 8.08644104 2.28520203 C6.95259255 2.27837245 5.81874407 2.27154287 4.65053654 2.26450634 C2 2 2 2 0 0 Z " fill="#78AC7A" transform="translate(158,274)"/>
<path d="M0 0 C2.31 0 4.62 0 7 0 C7.33 10.56 7.66 21.12 8 32 C11.96 32 15.92 32 20 32 C20 33.98 20 35.96 20 38 C16.25976998 39.24674334 12.7683914 39.14552755 8.875 39.125 C8.13378906 39.12886719 7.39257812 39.13273437 6.62890625 39.13671875 C1.1266598 39.1266598 1.1266598 39.1266598 0 38 C-0.08861992 35.1883662 -0.11522355 32.40141745 -0.09765625 29.58984375 C-0.0962413 28.74780899 -0.09482635 27.90577423 -0.09336853 27.03822327 C-0.08775263 24.33794665 -0.07519748 21.63775172 -0.0625 18.9375 C-0.05748705 17.11132932 -0.05292379 15.28515734 -0.04882812 13.45898438 C-0.03777804 8.97262458 -0.02050279 4.48632616 0 0 Z " fill="#343EA7" transform="translate(236,231)"/>
<path d="M0 0 C0.66 0 1.32 0 2 0 C1.125 6.75 1.125 6.75 0 9 C0.94875 8.79375 1.8975 8.5875 2.875 8.375 C3.90625 8.25125 4.9375 8.1275 6 8 C8.77042109 10.77042109 8.39796106 12.76533805 8.625 16.625 C8.69976562 17.81351563 8.77453125 19.00203125 8.8515625 20.2265625 C8.92503906 21.59941406 8.92503906 21.59941406 9 23 C5.99382731 19.99382731 6.40414684 17.17618402 6 13 C3.80882227 13.82201984 3.80882227 13.82201984 3.1484375 16.06640625 C2.89320313 16.89011719 2.63796875 17.71382812 2.375 18.5625 C2.11460937 19.38878906 1.85421875 20.21507812 1.5859375 21.06640625 C1.39257812 21.70449219 1.19921875 22.34257812 1 23 C3.64 23.33 6.28 23.66 9 24 C9 24.33 9 24.66 9 25 C5.7 25 2.4 25 -1 25 C-1.33 24.01 -1.66 23.02 -2 22 C-1.67 21.34 -1.34 20.68 -1 20 C-3.67576692 21.00617682 -4.7785108 21.54214546 -6.046875 24.1640625 C-6.27890625 24.97617188 -6.5109375 25.78828125 -6.75 26.625 C-6.99234375 27.44226563 -7.2346875 28.25953125 -7.484375 29.1015625 C-7.65453125 29.72804688 -7.8246875 30.35453125 -8 31 C-7.01 30.34 -6.02 29.68 -5 29 C-3.09887695 28.77294922 -3.09887695 28.77294922 -0.98828125 28.8046875 C-0.23095703 28.81113281 0.52636719 28.81757813 1.30664062 28.82421875 C2.09232422 28.84097656 2.87800781 28.85773438 3.6875 28.875 C4.48478516 28.88402344 5.28207031 28.89304687 6.10351562 28.90234375 C8.069139 28.92588415 10.03460775 28.96175453 12 29 C12.33 30.65 12.66 32.3 13 34 C12.34 33.34 11.68 32.68 11 32 C8.63490639 31.69940057 6.25558119 31.50484988 3.875 31.375 C2.59367188 31.30023438 1.31234375 31.22546875 -0.0078125 31.1484375 C-0.99523437 31.09945313 -1.98265625 31.05046875 -3 31 C-3.12375 31.763125 -3.2475 32.52625 -3.375 33.3125 C-4 36 -4 36 -6 39 C-8.31 38.67 -10.62 38.34 -13 38 C-9.32171134 25.15825539 -5.25036337 12.29202718 0 0 Z " fill="#2B3294" transform="translate(203,231)"/>
<path d="M0 0 C2.31 0 4.62 0 7 0 C7 12.87 7 25.74 7 39 C4.69 39 2.38 39 0 39 C0 33.39 0 27.78 0 22 C-5.28 22 -10.56 22 -16 22 C-16 21.67 -16 21.34 -16 21 C-15.15695312 20.87882812 -14.31390625 20.75765625 -13.4453125 20.6328125 C-12.34960938 20.46523437 -11.25390625 20.29765625 -10.125 20.125 C-9.03445313 19.96257812 -7.94390625 19.80015625 -6.8203125 19.6328125 C-3.88067286 19.23743487 -3.88067286 19.23743487 -2 17 C-1.01 17 -0.02 17 1 17 C1.02699725 14.72923158 1.04639453 12.45837179 1.0625 10.1875 C1.07410156 8.92292969 1.08570313 7.65835938 1.09765625 6.35546875 C1.16159116 3.00394763 1.16159116 3.00394763 0 0 Z " fill="#5159B9" transform="translate(327,231)"/>
<path d="M0 0 C0 0.99 0 1.98 0 3 C-4.12156082 3.17121405 -8.24338026 3.33126802 -12.36572266 3.48217773 C-13.76003913 3.53465201 -15.15425574 3.58987113 -16.54833984 3.64819336 C-18.58408927 3.73283225 -20.62002698 3.80665725 -22.65625 3.87890625 C-23.87119141 3.9260376 -25.08613281 3.97316895 -26.33789062 4.02172852 C-30.38888733 4.07724707 -34.39411262 3.79062645 -38.43457031 3.50927734 C-46.32885856 2.96787815 -54.17862102 2.89420102 -62.08872223 2.95540047 C-64.4602571 2.97317823 -66.83172143 2.98320556 -69.20330811 2.99131775 C-75.93166723 3.01546504 -82.65992784 3.05168978 -89.38818359 3.09594727 C-93.53685652 3.12271065 -97.68547785 3.13975597 -101.83422089 3.15081596 C-103.40510758 3.15700977 -104.97598419 3.16699503 -106.54682159 3.18089485 C-108.73082671 3.20009564 -110.91455473 3.20700283 -113.09863281 3.21118164 C-114.33832825 3.21863907 -115.57802368 3.2260965 -116.85528564 3.23377991 C-120 3 -120 3 -124 1 C-62.62 0.505 -62.62 0.505 0 0 Z " fill="#5E8161" transform="translate(335,224)"/>
<path d="M0 0 C0.33 0 0.66 0 1 0 C1.06058594 1.20398438 1.12117188 2.40796875 1.18359375 3.6484375 C1.26799732 5.22397077 1.35264541 6.79949096 1.4375 8.375 C1.47681641 9.1690625 1.51613281 9.963125 1.55664062 10.78125 C1.68893404 15.02601221 1.68893404 15.02601221 3 19 C5.68660943 19.90050092 8.29144554 20.1669706 11.109375 20.31640625 C11.86347656 20.35830078 12.61757813 20.40019531 13.39453125 20.44335938 C14.56048828 20.50233398 14.56048828 20.50233398 15.75 20.5625 C16.54277344 20.60568359 17.33554687 20.64886719 18.15234375 20.69335938 C20.10137815 20.79902991 22.05066748 20.89997966 24 21 C24 26.28 24 31.56 24 37 C23.67 37 23.34 37 23 37 C23 32.05 23 27.1 23 22 C18.05 22 13.1 22 8 22 C8.020625 24.26875 8.04125 26.5375 8.0625 28.875 C8.125 35.75 8.125 35.75 7 38 C5.02 38 3.04 38 1 38 C-0.23180134 34.30459598 -0.12412112 30.89696622 -0.09765625 27.05078125 C-0.0962413 26.27816452 -0.09482635 25.50554779 -0.09336853 24.70951843 C-0.08777466 22.24380611 -0.07522333 19.77818485 -0.0625 17.3125 C-0.05748421 15.63997527 -0.05292144 13.96744912 -0.04882812 12.29492188 C-0.03780724 8.19657954 -0.02054684 4.09830521 0 0 Z " fill="#3D4592" transform="translate(303,232)"/>
<path d="M0 0 C8.58 0 17.16 0 26 0 C27 5 27 5 26 7 C23.03 7 20.06 7 17 7 C17.01160156 8.14855469 17.02320313 9.29710937 17.03515625 10.48046875 C17.09895464 19.71728006 16.91026492 28.79982246 16 38 C15.67 38 15.34 38 15 38 C14.97494385 37.14768799 14.9498877 36.29537598 14.92407227 35.41723633 C14.82864431 32.23955034 14.72942876 29.06201106 14.62768555 25.88452148 C14.5845116 24.51217224 14.54282499 23.13977533 14.50268555 21.76733398 C14.44455608 19.78877932 14.3805429 17.8104003 14.31640625 15.83203125 C14.27974854 14.64327393 14.24309082 13.4545166 14.20532227 12.22973633 C14.05186299 8.68077723 14.05186299 8.68077723 13 4 C8.71 3.34 4.42 2.68 0 2 C0 1.34 0 0.68 0 0 Z " fill="#4D55A1" transform="translate(265,231)"/>
<path d="M0 0 C0.91644287 0.00523682 1.83288574 0.01047363 2.77709961 0.01586914 C3.76645508 0.0190918 4.75581055 0.02231445 5.77514648 0.02563477 C6.81606445 0.03401367 7.85698242 0.04239258 8.92944336 0.05102539 C10.49662109 0.05779297 10.49662109 0.05779297 12.09545898 0.06469727 C14.68600996 0.07652627 17.27644895 0.0930085 19.86694336 0.11352539 C19.90948692 2.11307285 19.90775119 4.11394175 19.86694336 6.11352539 C18.86694336 7.11352539 18.86694336 7.11352539 15.70678711 7.21118164 C13.77512695 7.1937793 13.77512695 7.1937793 11.80444336 7.17602539 C10.5140918 7.16700195 9.22374023 7.15797852 7.89428711 7.14868164 C6.89526367 7.13708008 5.89624023 7.12547852 4.86694336 7.11352539 C4.86694336 9.75352539 4.86694336 12.39352539 4.86694336 15.11352539 C8.82694336 15.11352539 12.78694336 15.11352539 16.86694336 15.11352539 C16.86694336 15.44352539 16.86694336 15.77352539 16.86694336 16.11352539 C12.57694336 16.11352539 8.28694336 16.11352539 3.86694336 16.11352539 C1.74194336 7.36352539 1.74194336 7.36352539 2.86694336 5.11352539 C6.02709961 4.69946289 6.02709961 4.69946289 9.92944336 4.48852539 C11.21979492 4.41375977 12.51014648 4.33899414 13.83959961 4.26196289 C14.83862305 4.21297852 15.83764648 4.16399414 16.86694336 4.11352539 C17.19694336 3.12352539 17.52694336 2.13352539 17.86694336 1.11352539 C11.59694336 1.11352539 5.32694336 1.11352539 -1.13305664 1.11352539 C-1.13305664 13.32352539 -1.13305664 25.53352539 -1.13305664 38.11352539 C3.32194336 37.61852539 3.32194336 37.61852539 7.86694336 37.11352539 C9.88699175 37.05347639 11.90866453 37.02544591 13.92944336 37.05102539 C14.86916992 37.06004883 15.80889648 37.06907227 16.77709961 37.07836914 C17.46674805 37.0899707 18.15639648 37.10157227 18.86694336 37.11352539 C18.86694336 35.46352539 18.86694336 33.81352539 18.86694336 32.11352539 C19.19694336 32.11352539 19.52694336 32.11352539 19.86694336 32.11352539 C19.90948692 34.11307285 19.90775119 36.11394175 19.86694336 38.11352539 C18.86694336 39.11352539 18.86694336 39.11352539 16.82568359 39.22705078 C15.51386108 39.21919556 15.51386108 39.21919556 14.17553711 39.21118164 C13.23129883 39.20795898 12.28706055 39.20473633 11.31420898 39.20141602 C10.32098633 39.19303711 9.32776367 39.1846582 8.30444336 39.17602539 C7.30735352 39.17151367 6.31026367 39.16700195 5.28295898 39.16235352 C2.81089487 39.15052546 0.33894818 39.13404388 -2.13305664 39.11352539 C-2.30028189 33.72022673 -2.46088032 28.32678788 -2.61523438 22.93310547 C-2.66873198 21.09678789 -2.7240671 19.26052292 -2.78125 17.42431641 C-2.86294528 14.79088692 -2.93811402 12.15734135 -3.01196289 9.52368164 C-3.03899796 8.69763931 -3.06603302 7.87159698 -3.09388733 7.02052307 C-3.14588675 5.05216729 -3.14493501 3.08253208 -3.13305664 1.11352539 C-2.13305664 0.11352539 -2.13305664 0.11352539 0 0 Z " fill="#242C6E" transform="translate(160.133056640625,230.886474609375)"/>
<path d="M0 0 C0.33 0 0.66 0 1 0 C1 12.21 1 24.42 1 37 C2.36532549 35.86298403 2.36532549 35.86298403 2.09765625 32.83984375 C2.08605469 31.55207031 2.07445312 30.26429688 2.0625 28.9375 C2.04896484 27.00197266 2.04896484 27.00197266 2.03515625 25.02734375 C2.02355469 24.02832031 2.01195312 23.02929688 2 22 C2.33 22 2.66 22 3 22 C3.12375 23.134375 3.2475 24.26875 3.375 25.4375 C3.684375 27.2009375 3.684375 27.2009375 4 29 C4.66 29.33 5.32 29.66 6 30 C6.33 30.99 6.66 31.98 7 33 C10.63 33.33 14.26 33.66 18 34 C18.33 35.65 18.66 37.3 19 39 C16.02077407 39.02683987 13.04178705 39.04676037 10.0625 39.0625 C9.21236328 39.07087891 8.36222656 39.07925781 7.48632812 39.08789062 C6.67744141 39.09111328 5.86855469 39.09433594 5.03515625 39.09765625 C4.2862915 39.10289307 3.53742676 39.10812988 2.76586914 39.11352539 C1 39 1 39 0 38 C-0.08861992 35.1883662 -0.11522355 32.40141745 -0.09765625 29.58984375 C-0.0962413 28.74780899 -0.09482635 27.90577423 -0.09336853 27.03822327 C-0.08775263 24.33794665 -0.07519748 21.63775172 -0.0625 18.9375 C-0.05748705 17.11132932 -0.05292379 15.28515734 -0.04882812 13.45898438 C-0.03777804 8.97262458 -0.02050279 4.48632616 0 0 Z " fill="#2C338B" transform="translate(236,231)"/>
<path d="M0 0 C0.33 0 0.66 0 1 0 C1.28571429 8.57142857 1.28571429 8.57142857 -1 12 C-0.01 11.34 0.98 10.68 2 10 C3.90112305 9.77294922 3.90112305 9.77294922 6.01171875 9.8046875 C6.76904297 9.81113281 7.52636719 9.81757813 8.30664062 9.82421875 C9.09232422 9.84097656 9.87800781 9.85773438 10.6875 9.875 C11.48478516 9.88402344 12.28207031 9.89304687 13.10351562 9.90234375 C15.069139 9.92588415 17.03460775 9.96175453 19 10 C19.33 11.65 19.66 13.3 20 15 C19.34 14.34 18.68 13.68 18 13 C15.63490639 12.69940057 13.25558119 12.50484988 10.875 12.375 C9.59367188 12.30023438 8.31234375 12.22546875 6.9921875 12.1484375 C6.00476563 12.09945313 5.01734375 12.05046875 4 12 C3.87625 12.763125 3.7525 13.52625 3.625 14.3125 C3 17 3 17 1 20 C-1.31 19.67 -3.62 19.34 -6 19 C-4.12275039 12.62267685 -2.14328358 6.29304541 0 0 Z " fill="#20256D" transform="translate(196,250)"/>
<path d="M0 0 C3.10439786 -0.0538854 6.20786307 -0.09361739 9.3125 -0.125 C10.19357422 -0.14175781 11.07464844 -0.15851563 11.98242188 -0.17578125 C12.82998047 -0.18222656 13.67753906 -0.18867188 14.55078125 -0.1953125 C15.72120972 -0.21102295 15.72120972 -0.21102295 16.9152832 -0.22705078 C19 0 19 0 22 2 C21.52949219 2.82242188 21.05898437 3.64484375 20.57421875 4.4921875 C17.1762828 10.584553 14.24775987 16.33818042 12.60546875 23.171875 C12.40566406 23.77515625 12.20585938 24.3784375 12 25 C11.34 25.33 10.68 25.66 10 26 C10 24.02 10 22.04 10 20 C10.66 20 11.32 20 12 20 C12.03738281 19.37351563 12.07476562 18.74703125 12.11328125 18.1015625 C12.17902344 17.28429687 12.24476562 16.46703125 12.3125 15.625 C12.37050781 14.81289062 12.42851563 14.00078125 12.48828125 13.1640625 C13 11 13 11 16 9 C16.25030977 6.41619823 16.25030977 6.41619823 16 4 C11.89776415 2.98459888 11.89776415 2.98459888 8 4 C7.195625 3.9175 6.39125 3.835 5.5625 3.75 C4.716875 3.8325 3.87125 3.915 3 4 C1.28288757 6.44496043 1.28288757 6.44496043 0 9 C-0.66 9 -1.32 9 -2 9 C-1.34 6.03 -0.68 3.06 0 0 Z " fill="#487F5C" transform="translate(88,231)"/>
<path d="M0 0 C2 0 2 0 3.75 1.5 C5.61222827 5.22445655 4.22892205 8.22850842 3 12 C1.75456409 15.17717362 0.36456134 18.27580061 -1.0625 21.375 C-1.42666016 22.18066406 -1.79082031 22.98632812 -2.16601562 23.81640625 C-4.65666853 29.31333705 -4.65666853 29.31333705 -6 32 C0.6 32 7.2 32 14 32 C14 32.33 14 32.66 14 33 C7.07 33 0.14 33 -7 33 C-7.99 29.7 -8.98 26.4 -10 23 C-9.01 23.33 -8.02 23.66 -7 24 C-7 24.99 -7 25.98 -7 27 C-6.34 27 -5.68 27 -5 27 C-4.87753906 26.30519531 -4.75507813 25.61039062 -4.62890625 24.89453125 C-3.9414143 21.73036021 -2.98142199 18.75191616 -1.9375 15.6875 C-1.57527344 14.61886719 -1.21304687 13.55023438 -0.83984375 12.44921875 C-0.56269531 11.64097656 -0.28554688 10.83273438 0 10 C-0.66 10 -1.32 10 -2 10 C-1.34 6.7 -0.68 3.4 0 0 Z " fill="#555CA3" transform="translate(389,244)"/>
<path d="M0 0 C0.33 0.66 0.66 1.32 1 2 C1.99 2.33 2.98 2.66 4 3 C3.67 3.66 3.34 4.32 3 5 C5.64 5 8.28 5 11 5 C11.33 15.23 11.66 25.46 12 36 C13.32 36 14.64 36 16 36 C16.33 32.37 16.66 28.74 17 25 C17.33 25 17.66 25 18 25 C18 29.62 18 34.24 18 39 C15.69 39 13.38 39 11 39 C10 38 10 38 9.88647461 35.04077148 C9.89171143 33.74727783 9.89694824 32.45378418 9.90234375 31.12109375 C9.9037587 30.4344313 9.90517365 29.74776886 9.90663147 29.04029846 C9.91224521 26.83932199 9.92479993 24.63844591 9.9375 22.4375 C9.94251324 20.94856917 9.94707645 19.45963676 9.95117188 17.97070312 C9.96221907 14.31376925 9.97949287 10.65689442 10 7 C9.04287109 7.01740234 9.04287109 7.01740234 8.06640625 7.03515625 C6.82697266 7.04869141 6.82697266 7.04869141 5.5625 7.0625 C4.32693359 7.07990234 4.32693359 7.07990234 3.06640625 7.09765625 C1 7 1 7 0 6 C-0.04080783 4.00041636 -0.04254356 1.99954746 0 0 Z " fill="#2F3570" transform="translate(264,231)"/>
<path d="M0 0 C1.98 0 3.96 0 6 0 C6 9.57 6 19.14 6 29 C5.67 29 5.34 29 5 29 C3.98713247 20.30019136 3.89378456 11.74507107 4 3 C3.01 3 2.02 3 1 3 C1 13.89 1 24.78 1 36 C1.99 36.33 2.98 36.66 4 37 C2.68 37 1.36 37 0 37 C0 24.79 0 12.58 0 0 Z " fill="#3E4698" transform="translate(237,231)"/>
<path d="M0 0 C2.31 0 4.62 0 7 0 C8.53537853 4.12398227 10.06509859 8.2500078 11.58984375 12.37792969 C12.10818909 13.77888046 12.62801649 15.17928388 13.14941406 16.57910156 C18.48083367 30.898355 18.48083367 30.898355 20 38 C19.34 38 18.68 38 18 38 C16.99600476 35.37646482 15.99665555 32.75132205 15 30.125 C14.71382812 29.37863281 14.42765625 28.63226563 14.1328125 27.86328125 C12 22.2265625 12 22.2265625 12 20 C11.34 20 10.68 20 10 20 C9.89042969 19.443125 9.78085938 18.88625 9.66796875 18.3125 C8.55807845 12.97058894 7.37638709 7.92880285 5 3 C2.42919865 1.86559222 2.42919865 1.86559222 0 2 C0 1.34 0 0.68 0 0 Z " fill="#3B438D" transform="translate(205,231)"/>
<path d="M0 0 C2.18514297 2.18514297 2.79147625 3.67829089 3.875 6.54296875 C4.22046875 7.45240234 4.5659375 8.36183594 4.921875 9.29882812 C5.27765625 10.25208984 5.6334375 11.20535156 6 12.1875 C6.53367187 13.58838867 6.53367187 13.58838867 7.078125 15.01757812 C8.94511876 19.9672015 10.64213435 24.88678717 12 30 C11.34 30.33 10.68 30.66 10 31 C9.566875 29.824375 9.13375 28.64875 8.6875 27.4375 C7.49431971 24.24825175 6.19240038 21.12822959 4.828125 18.0078125 C3.06445727 13.73175016 1.55192121 9.35640828 0 5 C-3.87671127 7.58447418 -3.80786195 9.62882714 -5 14 C-5.99 14.495 -5.99 14.495 -7 15 C-6.46290761 11.67002721 -5.60654243 8.47213142 -4.625 5.25 C-4.39039063 4.47140625 -4.15578125 3.6928125 -3.9140625 2.890625 C-3.46160156 1.95476562 -3.46160156 1.95476562 -3 1 C-2.01 0.67 -1.02 0.34 0 0 Z " fill="#6870AC" transform="translate(424,225)"/>
<path d="M0 0 C1.65 0 3.3 0 5 0 C8.59482404 6.76672761 10.8634633 11.40280346 9 19 C5.85041169 15.57653445 5.43820891 12.55737263 5 8 C1.89459074 6.78918149 1.89459074 6.78918149 -2 7 C-1.34 4.69 -0.68 2.38 0 0 Z " fill="#2E36A8" transform="translate(205,233)"/>
<path d="M0 0 C0.33 0 0.66 0 1 0 C1.8283506 11.68566021 2.12330415 23.28610535 2 35 C3.32 35 4.64 35 6 35 C6.33 35.99 6.66 36.98 7 38 C5.02 38 3.04 38 1 38 C-0.23180134 34.30459598 -0.12412112 30.89696622 -0.09765625 27.05078125 C-0.0962413 26.27816452 -0.09482635 25.50554779 -0.09336853 24.70951843 C-0.08777466 22.24380611 -0.07522333 19.77818485 -0.0625 17.3125 C-0.05748421 15.63997527 -0.05292144 13.96744912 -0.04882812 12.29492188 C-0.03780724 8.19657954 -0.02054684 4.09830521 0 0 Z " fill="#2B3267" transform="translate(303,232)"/>
<path d="M0 0 C0.66 0.33 1.32 0.66 2 1 C1.67 1.99 1.34 2.98 1 4 C1.66 4 2.32 4 3 4 C1.25 9.75 1.25 9.75 -1 12 C-3.06298828 12.22705078 -3.06298828 12.22705078 -5.5703125 12.1953125 C-6.46621094 12.18886719 -7.36210938 12.18242187 -8.28515625 12.17578125 C-9.22230469 12.15902344 -10.15945312 12.14226562 -11.125 12.125 C-12.06988281 12.11597656 -13.01476562 12.10695313 -13.98828125 12.09765625 C-16.32577292 12.07404522 -18.66276123 12.04111516 -21 12 C-19 10 -19 10 -15.3046875 9.8046875 C-13.82799892 9.817991 -12.35137642 9.84185165 -10.875 9.875 C-10.12089844 9.88402344 -9.36679688 9.89304687 -8.58984375 9.90234375 C-6.72642746 9.9259313 -4.86317407 9.96180281 -3 10 C-2.67 9.01 -2.34 8.02 -2 7 C-1.34 7 -0.68 7 0 7 C-0.185625 6.21625 -0.37125 5.4325 -0.5625 4.625 C-1 2 -1 2 0 0 Z " fill="#356235" transform="translate(90,265)"/>
<path d="M0 0 C0.33 0 0.66 0 1 0 C1 1.65 1 3.3 1 5 C0.01 5.33 -0.98 5.66 -2 6 C-2.0544452 8.20805524 -2.09299283 10.41650554 -2.125 12.625 C-2.14820312 13.85476562 -2.17140625 15.08453125 -2.1953125 16.3515625 C-2.16240975 19.98560302 -2.16240975 19.98560302 -0.9296875 23.2109375 C0.02856343 26.08569029 0.06637347 27.22742898 -1 30 C-7.03029236 19.29623107 -7.03029236 19.29623107 -6 13 C-4.85998362 9.89279256 -3.49447189 6.95076383 -2 4 C-1.62617187 3.25105469 -1.25234375 2.50210938 -0.8671875 1.73046875 C-0.58101563 1.15941406 -0.29484375 0.58835938 0 0 Z " fill="#212F77" transform="translate(106,239)"/>
<path d="M0 0 C0.99 0.495 0.99 0.495 2 1 C2.33333333 2.66666667 2.66666667 4.33333333 3 6 C7.29801679 8.1490084 12.08631297 8.22832516 16.8125 8.5625 C17.97394531 8.64628906 19.13539063 8.73007812 20.33203125 8.81640625 C21.65267578 8.90728516 21.65267578 8.90728516 23 9 C23.33 8.34 23.66 7.68 24 7 C23.67 8.32 23.34 9.64 23 11 C16.73 11 10.46 11 4 11 C0 3 0 3 0 0 Z " fill="#3C3F78" transform="translate(421,266)"/>
<path d="M0 0 C0 0.66 0 1.32 0 2 C-9.405 2.495 -9.405 2.495 -19 3 C-11.08 3.33 -3.16 3.66 5 4 C5 4.33 5 4.66 5 5 C-3.91 5 -12.82 5 -22 5 C-22 3.68 -22 2.36 -22 1 C-19.08340625 0.83196579 -16.16673658 0.66552033 -13.25 0.5 C-12.0125 0.42845703 -12.0125 0.42845703 -10.75 0.35546875 C-9.55117187 0.28779297 -9.55117187 0.28779297 -8.328125 0.21875 C-7.5949707 0.17685547 -6.86181641 0.13496094 -6.10644531 0.09179688 C-4.07266386 0.00316662 -2.03571175 0 0 0 Z " fill="#2F4F34" transform="translate(179,272)"/>
<path d="M0 0 C0.66 0 1.32 0 2 0 C0.4474339 5.1024438 -1.69104118 9.7730836 -4 14.5625 C-7.18873211 21.19789633 -7.18873211 21.19789633 -10 28 C-10.33 28 -10.66 28 -11 28 C-11.19622241 23.78121808 -10.80230168 20.82989106 -9 17 C-8.34 17 -7.68 17 -7 17 C-6.67 14.69 -6.34 12.38 -6 10 C-5.01 9.67 -4.02 9.34 -3 9 C-2.37907282 7.18703385 -2.37907282 7.18703385 -2 5 C-1.3530635 3.3255761 -0.69040574 1.65697379 0 0 Z " fill="#242972" transform="translate(142,247)"/>
<path d="M0 0 C1.99954746 -0.04254356 4.00041636 -0.04080783 6 0 C7 1 7 1 7.09765625 4.16015625 C7.08605469 5.44792969 7.07445312 6.73570312 7.0625 8.0625 C7.05347656 9.35285156 7.04445313 10.64320313 7.03515625 11.97265625 C7.02355469 12.97167969 7.01195312 13.97070312 7 15 C10.63 15.33 14.26 15.66 18 16 C18 16.33 18 16.66 18 17 C13.71 17 9.42 17 5 17 C5 12.05 5 7.1 5 2 C3.35 2 1.7 2 0 2 C0 1.34 0 0.68 0 0 Z " fill="#5D659D" transform="translate(304,231)"/>
<path d="M0 0 C0.95721871 3.03458696 1.00893515 4.99541482 0.1875 8.0625 C0.01605469 8.73410156 -0.15539062 9.40570313 -0.33203125 10.09765625 C-1 12 -1 12 -3 15 C-0.54126232 14.85941524 1.91685175 14.71277001 4.375 14.5625 C5.07367188 14.52318359 5.77234375 14.48386719 6.4921875 14.44335938 C10.37360492 14.25719866 10.37360492 14.25719866 14 13 C14 13.99 14 14.98 14 16 C7.4 16 0.8 16 -6 16 C-4.14624378 10.43873133 -2.36739374 5.29845265 0 0 Z " fill="#85B692" transform="translate(389,260)"/>
<path d="M0 0 C0.66 0 1.32 0 2 0 C0.65731345 4.33791038 -0.93212679 7.86425357 -3 12 C3.6 12 10.2 12 17 12 C17 12.33 17 12.66 17 13 C10.07 13 3.14 13 -4 13 C-4.99 9.7 -5.98 6.4 -7 3 C-6.01 3.33 -5.02 3.66 -4 4 C-4 4.99 -4 5.98 -4 7 C-3.34 7 -2.68 7 -2 7 C-1.855625 6.21625 -1.71125 5.4325 -1.5625 4.625 C-1 2 -1 2 0 0 Z " fill="#364861" transform="translate(386,264)"/>
<path d="M0 0 C0.99 0.33 1.98 0.66 3 1 C2.67 1.66 2.34 2.32 2 3 C1.22297219 4.85157928 0.45324295 6.70622529 -0.3125 8.5625 C-2.46312559 13.7452576 -4.68882436 18.88700809 -7 24 C-7.33 24 -7.66 24 -8 24 C-8.82718862 15.45238423 -3.85197584 7.29287126 0 0 Z " fill="#474F90" transform="translate(370,248)"/>
<path d="M0 0 C0.33 0.66 0.66 1.32 1 2 C2.65 2 4.3 2 6 2 C4.68 2.33 3.36 2.66 2 3 C2.165 3.680625 2.33 4.36125 2.5 5.0625 C3.18082756 9.06236191 3.85791887 13.28416227 2 17 C-0.64860427 17.59355614 -3.29197322 17.74209269 -6 18 C-4 16 -4 16 -1 15 C-0.67 10.05 -0.34 5.1 0 0 Z " fill="#41488B" transform="translate(326,231)"/>
<path d="M0 0 C1.5625 1.1875 1.5625 1.1875 3 3 C2.53290866 7.53745876 0.66118195 11.63327114 -1.0625 15.8125 C-1.34416016 16.50537109 -1.62582031 17.19824219 -1.91601562 17.91210938 C-2.60674973 19.60967624 -3.30283728 21.30506312 -4 23 C-4.33 23 -4.66 23 -5 23 C-5.25125104 18.47748123 -5.25125104 18.47748123 -4.05859375 16.2109375 C-2.73703395 13.4507794 -2.37948386 10.89831815 -1.9375 7.875 C-1.09722222 2.19444444 -1.09722222 2.19444444 0 0 Z " fill="#6D8F68" transform="translate(410,247)"/>
<path d="M0 0 C2.31 0 4.62 0 7 0 C7 12.54 7 25.08 7 38 C6.34 37.67 5.68 37.34 5 37 C5 25.78 5 14.56 5 3 C3.35 2.67 1.7 2.34 0 2 C0 1.34 0 0.68 0 0 Z " fill="#656EAC" transform="translate(327,231)"/>
<path d="M0 0 C1.1484375 1.671875 1.1484375 1.671875 2 4 C1.1015625 6.578125 1.1015625 6.578125 -0.375 9.25 C-1.09816406 10.58804687 -1.09816406 10.58804687 -1.8359375 11.953125 C-2.22007813 12.62859375 -2.60421875 13.3040625 -3 14 C-3.99 14 -4.98 14 -6 14 C-6 11.69 -6 9.38 -6 7 C-5.071875 6.6596875 -5.071875 6.6596875 -4.125 6.3125 C-1.38589791 4.62070165 -0.94975528 3.00755839 0 0 Z " fill="#467D49" transform="translate(97,255)"/>
<path d="M0 0 C4.62 0 9.24 0 14 0 C14 1.65 14 3.3 14 5 C9.71 5 5.42 5 1 5 C1 4.67 1 4.34 1 4 C4.63 4 8.26 4 12 4 C12 3.34 12 2.68 12 2 C8.37 2 4.74 2 1 2 C0.67 1.34 0.34 0.68 0 0 Z " fill="#2F368C" transform="translate(164,247)"/>
<path d="M0 0 C5.94 0 11.88 0 18 0 C18 0.33 18 0.66 18 1 C16.72125 1.144375 15.4425 1.28875 14.125 1.4375 C11.74307106 1.70642746 10.15547309 1.92226346 8 3 C7.195625 2.9175 6.39125 2.835 5.5625 2.75 C4.716875 2.8325 3.87125 2.915 3 3 C1.28288757 5.44496043 1.28288757 5.44496043 0 8 C-0.66 8 -1.32 8 -2 8 C-1.33333333 5.33333333 -0.66666667 2.66666667 0 0 Z " fill="#5C9B5F" transform="translate(88,232)"/>
<path d="M0 0 C2.97278854 1.48639427 3.15609356 3.88224465 4.19921875 6.8671875 C5.04210842 9.24882203 5.04210842 9.24882203 6.75 12.3125 C8 15 8 15 7 18 C1.62870159 8.58997722 1.62870159 8.58997722 0 4 C-0.99 4.99 -1.98 5.98 -3 7 C-1.125 1.125 -1.125 1.125 0 0 Z " fill="#2D3980" transform="translate(110,232)"/>
<path d="M0 0 C1.51946085 2.39885578 2.04498228 3.60994813 1.71484375 6.47265625 C-0.40275031 13.52775606 -0.40275031 13.52775606 -3.6875 16.125 C-4.450625 16.41375 -5.21375 16.7025 -6 17 C-4.13236819 11.27789404 -2.14710968 5.62338249 0 0 Z " fill="#6B9368" transform="translate(413,199)"/>
<path d="M0 0 C0.33 0 0.66 0 1 0 C1 3.63 1 7.26 1 11 C2.32 11 3.64 11 5 11 C5.33 7.37 5.66 3.74 6 0 C6.33 0 6.66 0 7 0 C7 4.62 7 9.24 7 14 C4.69 14 2.38 14 0 14 C0 9.38 0 4.76 0 0 Z " fill="#393F80" transform="translate(275,256)"/>
<path d="M0 0 C1.32 0.33 2.64 0.66 4 1 C3.319375 2.051875 3.319375 2.051875 2.625 3.125 C0.98313057 6.02984591 -0.03677099 8.8139348 -1 12 C1.64 12.33 4.28 12.66 7 13 C7 13.33 7 13.66 7 14 C3.7 14 0.4 14 -3 14 C-3.33 13.01 -3.66 12.02 -4 11 C-3.34 11 -2.68 11 -2 11 C-2.04125 10.113125 -2.0825 9.22625 -2.125 8.3125 C-2.00102754 5.02722987 -1.38612096 2.94550705 0 0 Z " fill="#1D245E" transform="translate(205,242)"/>
<path d="M0 0 C2 3 2 3 2.9375 5.625 C3.288125 6.40875 3.63875 7.1925 4 8 C4.99 8.33 5.98 8.66 7 9 C6.67 10.32 6.34 11.64 6 13 C5.34 13 4.68 13 4 13 C3.67 12.01 3.34 11.02 3 10 C2.01 9.67 1.02 9.34 0 9 C-0.73046875 7.15234375 -0.73046875 7.15234375 -1.1875 4.9375 C-1.34605469 4.20402344 -1.50460937 3.47054688 -1.66796875 2.71484375 C-1.77753906 2.14894531 -1.88710938 1.58304687 -2 1 C-1.34 0.67 -0.68 0.34 0 0 Z " fill="#49509B" transform="translate(378,258)"/>
<path d="M0 0 C0.33 0 0.66 0 1 0 C1 2.31 1 4.62 1 7 C0.01 7.33 -0.98 7.66 -2 8 C-2.0825 8.94875 -2.165 9.8975 -2.25 10.875 C-3 14 -3 14 -5.0625 15.375 C-5.701875 15.58125 -6.34125 15.7875 -7 16 C-5.56835889 12.34061828 -4.01065704 8.76011932 -2.375 5.1875 C-1.92898437 4.21167969 -1.48296875 3.23585937 -1.0234375 2.23046875 C-0.51683594 1.12638672 -0.51683594 1.12638672 0 0 Z " fill="#1B1F64" transform="translate(130,229)"/>
<path d="M0 0 C0.99 0.33 1.98 0.66 3 1 C2.71640113 2.4391134 2.42278601 3.87625518 2.125 5.3125 C1.88136719 6.51326172 1.88136719 6.51326172 1.6328125 7.73828125 C1 10 1 10 -1 13 C-2.20577428 8.05632546 -1.6290678 4.79137588 0 0 Z " fill="#81A87F" transform="translate(428,202)"/>
<path d="M0 0 C1.953125 0.5859375 1.953125 0.5859375 4 2 C4.609375 5.0390625 4.609375 5.0390625 4.75 8.625 C4.80671875 9.81351563 4.8634375 11.00203125 4.921875 12.2265625 C4.94765625 13.14179688 4.9734375 14.05703125 5 15 C2.6870518 12.6870518 2.50419025 11.52095125 1.875 8.375 C1.70742187 7.55773437 1.53984375 6.74046875 1.3671875 5.8984375 C1.24601563 5.27195313 1.12484375 4.64546875 1 4 C0.34 4 -0.32 4 -1 4 C-0.67 2.68 -0.34 1.36 0 0 Z " fill="#252D78" transform="translate(207,239)"/>
<path d="M0 0 C0.99 0 1.98 0 3 0 C3.36552803 1.41377782 3.71695495 2.83120576 4.0625 4.25 C4.25972656 5.03890625 4.45695312 5.8278125 4.66015625 6.640625 C5.01497267 9.10394822 4.76877544 10.65604132 4 13 C2.50178941 9.62902617 2 7.79557881 2 4 C0.68 4 -0.64 4 -2 4 C-2 3.34 -2 2.68 -2 2 C-1.34 2 -0.68 2 0 2 C0 1.34 0 0.68 0 0 Z " fill="#7B9C82" transform="translate(431,173)"/>
<path d="M0 0 C0.99773437 0.02320313 1.99546875 0.04640625 3.0234375 0.0703125 C4.52777344 0.09738281 4.52777344 0.09738281 6.0625 0.125 C6.83335937 0.14820313 7.60421875 0.17140625 8.3984375 0.1953125 C8.3984375 2.1753125 8.3984375 4.1553125 8.3984375 6.1953125 C7.7384375 6.1953125 7.0784375 6.1953125 6.3984375 6.1953125 C6.3984375 4.8753125 6.3984375 3.5553125 6.3984375 2.1953125 C2.7684375 2.1953125 -0.8615625 2.1953125 -4.6015625 2.1953125 C-2.6015625 0.1953125 -2.6015625 0.1953125 0 0 Z " fill="#434E99" transform="translate(247.6015625,262.8046875)"/>
<path d="M0 0 C0.66 0 1.32 0 2 0 C0.06375702 6.20477864 -2.25609141 12.10825719 -5 18 C-5.33 18 -5.66 18 -6 18 C-6 16.35 -6 14.7 -6 13 C-5.34 13 -4.68 13 -4 13 C-3.67 10.69 -3.34 8.38 -3 6 C-2.34 6 -1.68 6 -1 6 C-1.020625 5.195625 -1.04125 4.39125 -1.0625 3.5625 C-1 1 -1 1 0 0 Z " fill="#222976" transform="translate(150,229)"/>
<path d="M0 0 C6.6 0 13.2 0 20 0 C20 1.32 20 2.64 20 4 C19.34 4.66 18.68 5.32 18 6 C18 4.68 18 3.36 18 2 C12.06 1.67 6.12 1.34 0 1 C0 0.67 0 0.34 0 0 Z " fill="#464964" transform="translate(134,223)"/>
<path d="M0 0 C0 0.99 0 1.98 0 3 C-3.5460927 5.80388725 -6.4926374 7.46972205 -11 8 C-9.33333333 6.33333333 -7.66666667 4.66666667 -6 3 C-5.46375 2.401875 -4.9275 1.80375 -4.375 1.1875 C-3 0 -3 0 0 0 Z " fill="#6C946F" transform="translate(427,179)"/>
<path d="M0 0 C0 3 0 3 -1.375 4.75 C-3.46261903 7.64054943 -4.03570222 10.5928145 -5 14 C-5.99 14.495 -5.99 14.495 -7 15 C-6.46290761 11.67002721 -5.60654243 8.47213142 -4.625 5.25 C-4.39039063 4.47140625 -4.15578125 3.6928125 -3.9140625 2.890625 C-3.46160156 1.95476562 -3.46160156 1.95476562 -3 1 C-2.01 0.67 -1.02 0.34 0 0 Z " fill="#556F9E" transform="translate(424,225)"/>
<path d="M0 0 C0.99 0 1.98 0 3 0 C4.03016022 2.62168311 5.04938394 5.24673881 6.0625 7.875 C6.35705078 8.62136719 6.65160156 9.36773437 6.95507812 10.13671875 C7.69520486 12.06975563 8.35355735 14.03365032 9 16 C8.67 16.66 8.34 17.32 8 18 C7.040062 15.93824636 6.08211576 13.87556531 5.125 11.8125 C4.59132813 10.66394531 4.05765625 9.51539063 3.5078125 8.33203125 C2.26113087 5.57705863 1.09338408 2.81838323 0 0 Z " fill="#1A1D60" transform="translate(50,225)"/>
<path d="M0 0 C0.66 0 1.32 0 2 0 C2.66 1.98 3.32 3.96 4 6 C-1.75 6.125 -1.75 6.125 -4 5 C-3.67 4.01 -3.34 3.02 -3 2 C-2.34 2.33 -1.68 2.66 -1 3 C-0.67 2.01 -0.34 1.02 0 0 Z " fill="#282D7E" transform="translate(220,264)"/>
<path d="M0 0 C0.33 0 0.66 0 1 0 C1.33 4.62 1.66 9.24 2 14 C4.475 14.99 4.475 14.99 7 16 C7 16.33 7 16.66 7 17 C4.69 17 2.38 17 0 17 C0 11.39 0 5.78 0 0 Z " fill="#494F8B" transform="translate(327,253)"/>
<path d="M0 0 C0.99 0.33 1.98 0.66 3 1 C3 2.65 3 4.3 3 6 C1.35 6.33 -0.3 6.66 -2 7 C-2 7.99 -2 8.98 -2 10 C-2.66 10 -3.32 10 -4 10 C-2.8905928 6.51329166 -1.73662334 3.22515763 0 0 Z " fill="#367038" transform="translate(75,258)"/>
<path d="M0 0 C0.66 0.66 1.32 1.32 2 2 C1.9375 4.4375 1.9375 4.4375 1 7 C-1.5625 8.8125 -1.5625 8.8125 -4 10 C-2.8905928 6.51329166 -1.73662334 3.22515763 0 0 Z " fill="#3E7140" transform="translate(82,244)"/>
<path d="M0 0 C0.33 0 0.66 0 1 0 C1.19622241 4.21878192 0.80230168 7.17010894 -1 11 C-1.66 11 -2.32 11 -3 11 C-3.33 11.99 -3.66 12.98 -4 14 C-4.33 13.34 -4.66 12.68 -5 12 C-4.26821134 9.92803369 -3.44100997 7.8891448 -2.5625 5.875 C-2.08941406 4.77929688 -1.61632812 3.68359375 -1.12890625 2.5546875 C-0.75636719 1.71164063 -0.38382812 0.86859375 0 0 Z " fill="#414782" transform="translate(360,227)"/>
<path d="M0 0 C-0.33 1.98 -0.66 3.96 -1 6 C-1.99 6 -2.98 6 -4 6 C-4.33 7.65 -4.66 9.3 -5 11 C-5.33 11 -5.66 11 -6 11 C-6.48951049 4.63636364 -6.48951049 4.63636364 -4.125 1.5625 C-2 0 -2 0 0 0 Z " fill="#82AF90" transform="translate(425,220)"/>
<path d="M0 0 C0.99 0.33 1.98 0.66 3 1 C3 2.65 3 4.3 3 6 C0.69 5.67 -1.62 5.34 -4 5 C-4 4.34 -4 3.68 -4 3 C-3.34 3 -2.68 3 -2 3 C-2 2.34 -2 1.68 -2 1 C-1.34 0.67 -0.68 0.34 0 0 Z " fill="#6F8A6F" transform="translate(436,196)"/>
<path d="M0 0 C0.66 0.99 1.32 1.98 2 3 C1.125 5.6875 1.125 5.6875 0 8 C-0.66 8 -1.32 8 -2 8 C-2 9.65 -2 11.3 -2 13 C-2.66 12.67 -3.32 12.34 -4 12 C-3.52309796 10.37433394 -3.04340334 8.74948689 -2.5625 7.125 C-2.29566406 6.22007812 -2.02882813 5.31515625 -1.75390625 4.3828125 C-1 2 -1 2 0 0 Z " fill="#3A3E7B" transform="translate(348,256)"/>
<path d="M0 0 C1.125 1.6875 1.125 1.6875 2 4 C1.125 6.75 1.125 6.75 0 9 C-1.32 8.34 -2.64 7.68 -4 7 C-2.79266543 4.58533087 -1.39745961 2.30884631 0 0 Z " fill="#1E2376" transform="translate(122,246)"/>
<path d="M0 0 C0.33 0.66 0.66 1.32 1 2 C1.99 2.33 2.98 2.66 4 3 C3.67 3.66 3.34 4.32 3 5 C5.64 5 8.28 5 11 5 C11 5.33 11 5.66 11 6 C7.37 6 3.74 6 0 6 C0 4.02 0 2.04 0 0 Z " fill="#343D84" transform="translate(264,231)"/>
<path d="M0 0 C1.32 0 2.64 0 4 0 C4.33 1.98 4.66 3.96 5 6 C4.34 6 3.68 6 3 6 C3 5.34 3 4.68 3 4 C1.68 4 0.36 4 -1 4 C-0.67 2.68 -0.34 1.36 0 0 Z " fill="#87C087" transform="translate(429,177)"/>
<path d="M0 0 C0.99 0 1.98 0 3 0 C1.68938409 4.23429756 0.05643741 8.07407404 -2 12 C-3.15957207 8.52128379 -2.77456651 7.65780355 -1.5625 4.3125 C-1.13130859 3.10013672 -1.13130859 3.10013672 -0.69140625 1.86328125 C-0.46324219 1.24839844 -0.23507812 0.63351563 0 0 Z " fill="#516DA2" transform="translate(390,252)"/>
<path d="M0 0 C0.66 0 1.32 0 2 0 C2.33 0.99 2.66 1.98 3 3 C2.01 3.99 1.02 4.98 0 6 C-0.99 5.67 -1.98 5.34 -3 5 C-3 4.34 -3 3.68 -3 3 C-2.34 3 -1.68 3 -1 3 C-0.67 2.01 -0.34 1.02 0 0 Z " fill="#5F7F5E" transform="translate(414,187)"/>
<path d="M0 0 C2 1 2 1 3.1875 3.8125 C3.9946573 6.97904018 3.91292822 8.01517795 3 11 C2.30034557 9.73581754 1.61565237 8.46334598 0.9375 7.1875 C0.55464844 6.47980469 0.17179687 5.77210938 -0.22265625 5.04296875 C-1 3 -1 3 0 0 Z " fill="#21226A" transform="translate(102,258)"/>
<path d="M0 0 C0.33 0 0.66 0 1 0 C1 2.31 1 4.62 1 7 C0.01 7.33 -0.98 7.66 -2 8 C-2.33 8.99 -2.66 9.98 -3 11 C-2.44894091 7.0507432 -1.61064629 3.65079826 0 0 Z " fill="#222A6A" transform="translate(200,239)"/>
<path d="M0 0 C0.66 0 1.32 0 2 0 C2.99 2.97 3.98 5.94 5 9 C4.34 9 3.68 9 3 9 C0 3.375 0 3.375 0 0 Z " fill="#646CAA" transform="translate(382,228)"/>
<path d="M0 0 C0.5534764 2.07553648 1 3.84365964 1 6 C2.32 6.66 3.64 7.32 5 8 C2.69 8 0.38 8 -2 8 C-1.47731534 5.23723823 -0.89130413 2.6739124 0 0 Z " fill="#444884" transform="translate(343,268)"/>
<path d="M0 0 C1.5625 1.1875 1.5625 1.1875 3 3 C2.6875 5.6875 2.6875 5.6875 2 8 C1.01 7.67 0.02 7.34 -1 7 C-0.67 4.69 -0.34 2.38 0 0 Z " fill="#76A573" transform="translate(410,247)"/>
<path d="M0 0 C0.6875 1.625 0.6875 1.625 1 4 C-0.4375 7.25 -0.4375 7.25 -2 10 C-2.33 10 -2.66 10 -3 10 C-3 7.69 -3 5.38 -3 3 C-2.01 3 -1.02 3 0 3 C0 2.01 0 1.02 0 0 Z " fill="#1E1F5D" transform="translate(80,241)"/>
<path d="M0 0 C1.32 0 2.64 0 4 0 C4 1.32 4 2.64 4 4 C2.35 4 0.7 4 -1 4 C-0.67 2.68 -0.34 1.36 0 0 Z " fill="#292E97" transform="translate(193,264)"/>
<path d="M0 0 C0.66 0 1.32 0 2 0 C1.34 1.98 0.68 3.96 0 6 C-0.66 6 -1.32 6 -2 6 C-2.66 4.35 -3.32 2.7 -4 1 C-2.68 1.33 -1.36 1.66 0 2 C0 1.34 0 0.68 0 0 Z " fill="#20235B" transform="translate(71,259)"/>
<path d="M0 0 C1.32 0 2.64 0 4 0 C4 1.98 4 3.96 4 6 C4.66 6.33 5.32 6.66 6 7 C5.34 7.66 4.68 8.32 4 9 C2.68 6.03 1.36 3.06 0 0 Z " fill="#3E4176" transform="translate(413,250)"/>
<path d="M0 0 C0.66 0 1.32 0 2 0 C2.33 2.31 2.66 4.62 3 7 C2.01 7.495 2.01 7.495 1 8 C0.34 5.69 -0.32 3.38 -1 1 C-0.67 0.67 -0.34 0.34 0 0 Z " fill="#45478A" transform="translate(374,251)"/>
<path d="M0 0 C1.40182371 2.61673759 2.60495559 5.0371669 3 8 C2.34 8.66 1.68 9.32 1 10 C0.63720544 8.71073008 0.28503302 7.41846728 -0.0625 6.125 C-0.35833984 5.04605469 -0.35833984 5.04605469 -0.66015625 3.9453125 C-1 2 -1 2 0 0 Z " fill="#5B64AE" transform="translate(429,237)"/>
<path d="M0 0 C0.33 0 0.66 0 1 0 C1 1.65 1 3.3 1 5 C0.01 5.33 -0.98 5.66 -2 6 C-2 6.99 -2 7.98 -2 9 C-2.66 9 -3.32 9 -4 9 C-2.80100302 5.9168649 -1.52299523 2.93720508 0 0 Z " fill="#234373" transform="translate(106,239)"/>
<path d="M0 0 C0.33 0 0.66 0 1 0 C2.25 7.625 2.25 7.625 0 11 C-0.84098656 6.98195309 -1.05404945 3.98196457 0 0 Z " fill="#7AA676" transform="translate(427,204)"/>
<path d="" fill="#000000" transform="translate(0,0)"/>
<path d="" fill="#000000" transform="translate(0,0)"/>
<path d="" fill="#000000" transform="translate(0,0)"/>
<path d="" fill="#000000" transform="translate(0,0)"/>
<path d="" fill="#000000" transform="translate(0,0)"/>
<path d="" fill="#000000" transform="translate(0,0)"/>
<path d="" fill="#000000" transform="translate(0,0)"/>
<path d="" fill="#000000" transform="translate(0,0)"/>
<path d="" fill="#000000" transform="translate(0,0)"/>
<path d="" fill="#000000" transform="translate(0,0)"/>
<path d="" fill="#000000" transform="translate(0,0)"/>
<path d="" fill="#000000" transform="translate(0,0)"/>
<path d="" fill="#000000" transform="translate(0,0)"/>
<path d="" fill="#000000" transform="translate(0,0)"/>
<path d="" fill="#000000" transform="translate(0,0)"/>
<path d="" fill="#000000" transform="translate(0,0)"/>
<path d="" fill="#000000" transform="translate(0,0)"/>
<path d="" fill="#000000" transform="translate(0,0)"/>
<path d="" fill="#000000" transform="translate(0,0)"/>
<path d="" fill="#000000" transform="translate(0,0)"/>
<path d="" fill="#000000" transform="translate(0,0)"/>
<path d="" fill="#000000" transform="translate(0,0)"/>
<path d="" fill="#000000" transform="translate(0,0)"/>
<path d="" fill="#000000" transform="translate(0,0)"/>
<path d="" fill="#000000" transform="translate(0,0)"/>
<path d="" fill="#000000" transform="translate(0,0)"/>
<path d="" fill="#000000" transform="translate(0,0)"/>
<path d="" fill="#000000" transform="translate(0,0)"/>
<path d="" fill="#000000" transform="translate(0,0)"/>
<path d="" fill="#000000" transform="translate(0,0)"/>
<path d="" fill="#000000" transform="translate(0,0)"/>
<path d="" fill="#000000" transform="translate(0,0)"/>
<path d="" fill="#000000" transform="translate(0,0)"/>
<path d="" fill="#000000" transform="translate(0,0)"/>
<path d="" fill="#000000" transform="translate(0,0)"/>
<path d="" fill="#000000" transform="translate(0,0)"/>
<path d="" fill="#000000" transform="translate(0,0)"/>
<path d="" fill="#000000" transform="translate(0,0)"/>
<path d="" fill="#000000" transform="translate(0,0)"/>
<path d="" fill="#000000" transform="translate(0,0)"/>
<path d="" fill="#000000" transform="translate(0,0)"/>
<path d="" fill="#000000" transform="translate(0,0)"/>
<path d="" fill="#000000" transform="translate(0,0)"/>
<path d="" fill="#000000" transform="translate(0,0)"/>
<path d="" fill="#000000" transform="translate(0,0)"/>
<path d="" fill="#000000" transform="translate(0,0)"/>
<path d="" fill="#000000" transform="translate(0,0)"/>
<path d="" fill="#000000" transform="translate(0,0)"/>
<path d="" fill="#000000" transform="translate(0,0)"/>
<path d="" fill="#000000" transform="translate(0,0)"/>
<path d="" fill="#000000" transform="translate(0,0)"/>
<path d="" fill="#000000" transform="translate(0,0)"/>
<path d="" fill="#000000" transform="translate(0,0)"/>
<path d="" fill="#000000" transform="translate(0,0)"/>
<path d="" fill="#000000" transform="translate(0,0)"/>
<path d="" fill="#000000" transform="translate(0,0)"/>
<path d="" fill="#000000" transform="translate(0,0)"/>
<path d="" fill="#000000" transform="translate(0,0)"/>
<path d="" fill="#000000" transform="translate(0,0)"/>
<path d="" fill="#000000" transform="translate(0,0)"/>
<path d="" fill="#000000" transform="translate(0,0)"/>
<path d="" fill="#000000" transform="translate(0,0)"/>
<path d="" fill="#000000" transform="translate(0,0)"/>
<path d="" fill="#000000" transform="translate(0,0)"/>
<path d="" fill="#000000" transform="translate(0,0)"/>
<path d="" fill="#000000" transform="translate(0,0)"/>
<path d="" fill="#000000" transform="translate(0,0)"/>
<path d="" fill="#000000" transform="translate(0,0)"/>
<path d="" fill="#000000" transform="translate(0,0)"/>
<path d="" fill="#000000" transform="translate(0,0)"/>
<path d="" fill="#000000" transform="translate(0,0)"/>
<path d="" fill="#000000" transform="translate(0,0)"/>
<path d="" fill="#000000" transform="translate(0,0)"/>
<path d="" fill="#000000" transform="translate(0,0)"/>
<path d="" fill="#000000" transform="translate(0,0)"/>
<path d="" fill="#000000" transform="translate(0,0)"/>
<path d="" fill="#000000" transform="translate(0,0)"/>
<path d="" fill="#000000" transform="translate(0,0)"/>
<path d="" fill="#000000" transform="translate(0,0)"/>
<path d="" fill="#000000" transform="translate(0,0)"/>
<path d="" fill="#000000" transform="translate(0,0)"/>
<path d="" fill="#000000" transform="translate(0,0)"/>
<path d="" fill="#000000" transform="translate(0,0)"/>
<path d="" fill="#000000" transform="translate(0,0)"/>
<path d="" fill="#000000" transform="translate(0,0)"/>
<path d="" fill="#000000" transform="translate(0,0)"/>
<path d="" fill="#000000" transform="translate(0,0)"/>
<path d="" fill="#000000" transform="translate(0,0)"/>
</svg>
